<?xml version="1.0" standalone="no"?>
<!DOCTYPE svg PUBLIC "-//W3C//DTD SVG 20010904//EN"
 "http://www.w3.org/TR/2001/REC-SVG-20010904/DTD/svg10.dtd">
<svg version="1.0" xmlns="http://www.w3.org/2000/svg"
 width="300.000000pt" height="300.000000pt" viewBox="0 0 300.000000 300.000000"
 preserveAspectRatio="xMidYMid meet">

<g transform="translate(0.000000,300.000000) scale(0.100000,-0.100000)"
fill="#ff7400" stroke="#ffb8e2">
<path d="M1280 2845 c-310 -59 -553 -186 -757 -398 -181 -187 -302 -413 -358
-667 -22 -100 -31 -356 -15 -462 43 -301 179 -574 388 -781 201 -200 444 -327
727 -378 153 -27 387 -23 530 10 394 92 724 344 913 701 65 120 117 285 142
442 18 111 7 367 -19 483 -91 394 -344 724 -701 913 -115 62 -277 114 -434
142 -80 13 -335 11 -416 -5z m425 -131 c521 -91 918 -488 1009 -1009 46 -261
-8 -578 -135 -800 -230 -401 -627 -635 -1079 -635 -452 0 -849 234 -1079 635
-95 165 -151 387 -151 595 0 452 234 849 635 1079 98 56 256 112 381 135 109
19 309 19 419 0z"/>
<path d="M1112 1510 l-3 -640 65 0 66 0 0 235 0 235 53 0 c234 2 444 13 478
25 148 52 249 206 249 378 0 137 -62 260 -167 334 -97 68 -127 73 -452 73
l-286 0 -3 -640z m624 508 c90 -49 137 -118 156 -226 11 -66 10 -77 -10 -140
-26 -81 -78 -147 -136 -173 -36 -16 -69 -19 -273 -19 l-233 0 0 291 0 291 233
-4 c196 -2 237 -6 263 -20z"/>
</g>
</svg>
