<?xml version="1.0" standalone="no"?>
<!DOCTYPE svg PUBLIC "-//W3C//DTD SVG 20010904//EN"
 "http://www.w3.org/TR/2001/REC-SVG-20010904/DTD/svg10.dtd">
<svg version="1.0" xmlns="http://www.w3.org/2000/svg"
 width="300.000000pt" height="300.000000pt" viewBox="0 0 300.000000 300.000000"
 preserveAspectRatio="xMidYMid meet">
<metadata>
Created by potrace 1.16, written by Peter Selinger 2001-2019
</metadata>
<g transform="translate(0.000000,300.000000) scale(0.100000,-0.100000)"
fill="#ff7400" stroke="#ffb8e2">
<path d="M1395 2864 c-348 -36 -626 -164 -860 -399 -265 -264 -398 -587 -398
-965 0 -378 133 -701 398 -965 201 -202 448 -332 720 -379 119 -21 371 -21
490 0 272 47 519 177 720 379 202 201 332 448 379 720 21 119 21 371 0 490
-47 272 -177 519 -379 720 -202 202 -449 332 -721 379 -93 16 -281 27 -349 20z
m351 -163 c428 -88 775 -395 917 -811 83 -243 83 -536 0 -780 -143 -421 -497
-729 -938 -816 -121 -24 -329 -24 -450 0 -502 99 -882 479 -981 981 -24 121
-24 329 0 450 87 441 393 794 816 938 65 22 162 44 275 61 64 10 264 -3 361
-23z"/>
<path d="M1348 2136 c-199 -46 -310 -173 -310 -357 -1 -90 21 -147 78 -201 59
-56 126 -84 319 -133 268 -69 325 -95 366 -169 31 -55 31 -138 -1 -195 -19
-33 -38 -49 -89 -74 -61 -30 -74 -32 -187 -35 -179 -6 -294 30 -429 134 l-44
33 -30 -50 c-17 -27 -31 -53 -31 -57 1 -15 95 -76 175 -113 107 -50 204 -71
340 -72 225 -1 374 71 439 212 27 60 30 219 4 266 -63 115 -152 164 -430 234
-290 73 -342 109 -341 236 1 144 95 221 283 232 138 8 256 -28 340 -103 l39
-35 35 53 34 53 -30 27 c-39 34 -133 84 -195 104 -66 21 -262 27 -335 10z"/>
</g>
</svg>
